 <svg version="1.0" xmlns="http://www.w3.org/2000/svg" width="700.000000pt" height="700.000000pt" viewBox="0 0 700.000000 700.000000" preserveAspectRatio="xMidYMid meet">
<metadata>
Created by potrace 1.12, written by Peter Selinger 2001-2015
</metadata>
<g transform="translate(0.000000,700.000000) scale(0.100000,-0.100000)" fill="#000000" stroke="none">
<path d="M943 5631 c-76 -26 -182 -121 -222 -199 -35 -68 -31 -241 7 -306 24
-40 75 -69 191 -107 l95 -30 2487 0 2487 0 78 26 c121 40 175 73 204 125 22
40 25 56 25 155 0 102 -2 114 -27 156 -34 59 -129 146 -188 173 l-45 21 -2520
2 c-2402 2 -2522 2 -2572 -16z"></path>
<path d="M1036 3835 c-48 -10 -238 -107 -280 -144 -80 -69 -80 -313 0 -382 30
-27 205 -125 246 -138 28 -9 609 -12 2500 -12 2158 0 2468 1 2505 15 22 8 85
41 140 74 133 80 148 106 148 252 0 146 -15 172 -150 253 -55 33 -118 66 -140
74 -34 12 -387 15 -2479 16 -1624 1 -2456 -1 -2490 -8z"></path>
<path d="M1130 2009 c-142 -5 -162 -9 -240 -37 -152 -57 -172 -79 -190 -200
-12 -86 1 -169 35 -227 32 -55 126 -141 185 -169 l45 -21 2535 0 2535 0 48 22
c58 27 150 112 185 172 51 87 39 293 -20 349 -28 26 -133 74 -210 97 -52 15
-259 16 -2405 18 -1291 1 -2418 -1 -2503 -4z"></path>
</g>
</svg>