<svg xmlns="http://www.w3.org/2000/svg" width="933.333" height="933.333" version="1.0" viewBox="0 0 700 700"><path d="M591.2 76.9c-4 1.4-7.1 3.6-12.7 9.2-4.1 4.1-8.7 8.6-10.2 10.1s-10.3 10.5-19.5 20-17.9 18.4-19.4 19.8c-1.5 1.4-4.6 4.5-6.8 6.8-2.3 2.4-5.8 6-8 8-2.1 2.1-5.5 5.4-7.5 7.6-2 2.1-5.4 5.5-7.5 7.5-2.2 2-5.6 5.3-7.5 7.5-2 2.1-5.6 5.7-7.9 8-2.4 2.2-6 5.8-8 8-2.1 2.1-5.5 5.5-7.6 7.5-2.2 2-5.3 5.1-7 7-1.7 1.8-5.1 5.2-7.4 7.5-2.4 2.2-6 5.8-8 8-2.1 2.1-5.7 5.7-8.1 8-2.4 2.2-5.8 5.7-7.5 7.6-1.7 1.9-5.1 5.3-7.5 7.5-2.4 2.2-5.8 5.5-7.5 7.4-1.7 1.8-5.1 5.3-7.6 7.7-5.5 5.3-7.9 7.6-13.4 13.4-2.4 2.5-6.1 6.1-8.2 8.1-2.2 2-5.5 5.4-7.4 7.5-2 2.2-5.1 5.3-7 7-1.9 1.7-5.2 5.1-7.2 7.6-3 3.7-5.1 5-10 6.7-11.9 4-15.6 2.8-26-8.2-4.9-5.2-47.3-45.7-55.7-53.2-3.1-2.8-8.8-8.2-12.7-12-12.9-12.8-38.9-38-41.4-40.1-1.4-1.2-4.4-4.1-6.7-6.5-2.3-2.4-8.2-8.1-13-12.7-4.8-4.5-15.6-14.8-24-23-8.3-8.1-16.9-16.3-19-18.2-2.1-2-5.1-5-6.8-6.8-6.4-6.8-19.2-18.9-22.7-21.5-2-1.5-4.9-4.5-6.5-6.6-1.5-2.1-4.3-4.9-6.3-6.2-1.9-1.3-5.7-4.5-8.4-7.1-6-5.9-8.3-6.1-13.9-.9-2.3 2.1-6.5 5-9.3 6.4-6.3 3.2-10.4 7.8-10.4 11.8 0 6.6 2.2 12.2 6.3 15.8 5.3 4.8 18.1 16.8 27.7 26.1 4.3 4.1 9.5 9.1 11.6 11 2.2 1.9 5 4.7 6.4 6.2 5.4 6 18.7 18.5 21.7 20.7 1.8 1.2 4.7 4.2 6.4 6.7 1.8 2.4 5.3 5.7 7.9 7.4 2.5 1.6 6 5 7.7 7.4 1.8 2.5 5.5 6.2 8.2 8.1 2.8 2 6 5.2 7.2 7.1 1.1 1.9 3.7 4.6 5.7 6.1 3.5 2.5 14.6 13 22.2 20.9 1.9 2 5.2 5.3 7.4 7.3 2.1 2 7.3 7 11.6 11.1 4.2 4.1 9.2 8.9 11.1 10.6 1.9 1.8 5.1 4.9 7.1 7 2.1 2.2 7.7 7.6 12.5 12.2 4.8 4.5 15.4 14.6 23.4 22.5 8 7.8 16.5 15.7 18.7 17.4 5.6 4.5 6.8 8.6 5.2 17.7-1.2 6.7-1.5 7.4-6.9 12.4-5.7 5.4-39.6 39.1-52.3 52-.7.8-8.8 9-18.1 18.3-9.2 9.4-16.7 17.4-16.7 17.9s-2.4 2.7-5.4 4.9c-3 2.2-6.9 6-8.6 8.5-1.8 2.4-5.2 5.8-7.6 7.5-2.4 1.8-5.7 5.1-7.4 7.5-1.7 2.4-5.1 5.7-7.5 7.4-2.5 1.7-6 5.3-7.9 7.9-1.9 2.7-5.5 6.3-8 8.1-2.5 1.8-6 5.3-7.7 7.7-1.8 2.4-4.9 5.6-7.1 7.1-2.1 1.5-5.5 4.9-7.4 7.6-2 2.7-5.6 6.2-8 7.8-2.4 1.7-5.7 5.1-7.4 7.5-1.7 2.4-5 5.8-7.4 7.4-2.3 1.6-6.1 5.4-8.3 8.3-2.2 2.9-5.6 6.4-7.4 7.7-1.9 1.3-4.9 4.3-6.7 6.7-1.8 2.4-5.5 6.1-8.3 8.1-5.5 4.2-8.5 9.4-9.5 16.5-.8 6 1.3 10.4 9.3 18.9 7.6 8 11.8 10.4 16 8.9 1.6-.6 51.6-50 121.3-120l118.6-119h4.9c8.8 0 12.3 2.6 42.2 31 15.3 14.5 31.2 29.8 35.3 34 4.1 4.1 14.5 14 23 22 16.5 15.5 22.9 21.6 46.6 44.8 8.3 8.1 16.8 16.3 19 18.2 2.1 1.9 5 4.7 6.4 6.2 4.6 5.1 20.7 20.3 23.4 22.2 1.5 1 4.3 3.9 6.1 6.5 1.9 2.5 5.2 5.7 7.4 7.1 2.3 1.4 5.5 4.4 7.2 6.8 1.7 2.3 5.5 6.1 8.5 8.3 3 2.2 6.6 5.7 8 7.8 1.3 2.1 5 5.5 8 7.7 3.1 2.1 6.3 4.8 7.1 6 .7 1.2 2.7 2.7 4.2 3.4 3.4 1.4 7-.1 11.1-4.5 1.4-1.5 5.3-4.1 8.8-5.7 8.1-3.8 9.6-6.2 8.9-13.4-.6-5.5-4.8-14.4-6.8-14.4-.6 0-4.9-3.8-9.7-8.5-22.5-22.1-25.8-25.2-27.7-26.6-1.2-.8-3.4-3.1-4.9-5.1-1.5-2.1-5-5.3-7.6-7.2-2.6-1.9-6-5.2-7.6-7.4-1.6-2.2-4.4-5-6.4-6.3-1.9-1.3-10.5-9.5-19.2-18.2-8.7-8.6-16.2-15.7-16.7-15.7-.4 0-2-1.8-3.5-4-1.4-2.1-5-5.7-8.1-8-3-2.2-6.9-6-8.7-8.4-1.8-2.4-5.2-5.6-7.6-7.1-2.4-1.5-6.1-5.2-8.3-8.1-2.2-3-4.4-5.4-5-5.4-.6 0-4.6-3.5-8.9-7.8-4.3-4.2-9.6-9.3-11.7-11.3-2.1-2-5.4-5.3-7.3-7.3-3.6-3.8-17.9-17.5-24.7-23.6-2.1-1.9-4.7-4.5-5.8-5.7-4.1-4.5-20.4-19.9-24.2-23-4.5-3.5-11.3-16.5-11.3-21.4 0-2.6 2.8-5.8 19.8-22.7 10.9-10.8 21.6-21.7 23.8-24.2 4.6-5.1 14.1-14.6 19.8-19.9 11.9-10.9 159.7-159.7 164.3-165.3 3.9-4.8 5.6-7.9 6-10.7.5-3.6.2-4.2-4.1-8.2-2.6-2.4-6-6.7-7.5-9.4-1.6-2.8-3.5-5.6-4.3-6.3-2.6-2.1-7.2-2.3-12.6-.3z"/></svg>